<svg width="36" height="33" viewBox="0 0 36 33" fill="none" xmlns="http://www.w3.org/2000/svg">
<mask id="path-1-inside-1_223_83" fill="white">
<path fill-rule="evenodd" clip-rule="evenodd" d="M33.199 23.0395C34.9726 20.7158 36 17.9579 36 15C36 6.71573 27.9411 0 18 0C8.05887 0 0 6.71573 0 15C0 23.2843 8.05887 30 18 30C20.7383 30 23.3338 29.4904 25.6574 28.5789L34.025 32.4808L33.199 23.0395Z"/>
</mask>
<path fill-rule="evenodd" clip-rule="evenodd" d="M33.199 23.0395C34.9726 20.7158 36 17.9579 36 15C36 6.71573 27.9411 0 18 0C8.05887 0 0 6.71573 0 15C0 23.2843 8.05887 30 18 30C20.7383 30 23.3338 29.4904 25.6574 28.5789L34.025 32.4808L33.199 23.0395Z" fill="#515151"/>
<path d="M33.199 23.0395L30.8143 21.2193L30.1091 22.1431L30.2104 23.301L33.199 23.0395ZM25.6574 28.5789L26.9253 25.86L25.7594 25.3163L24.5618 25.7861L25.6574 28.5789ZM34.025 32.4808L32.7572 35.1997L37.4665 37.3957L37.0136 32.2193L34.025 32.4808ZM33 15C33 17.2391 32.2275 19.3679 30.8143 21.2193L35.5837 24.8597C37.7178 22.0638 39 18.6766 39 15H33ZM18 3C26.8197 3 33 8.8615 33 15H39C39 4.56996 29.0626 -3 18 -3V3ZM3 15C3 8.8615 9.18035 3 18 3V-3C6.9374 -3 -3 4.56996 -3 15H3ZM18 27C9.18035 27 3 21.1385 3 15H-3C-3 25.43 6.9374 33 18 33V27ZM24.5618 25.7861C22.5903 26.5595 20.3667 27 18 27V33C21.11 33 24.0774 32.4213 26.753 31.3717L24.5618 25.7861ZM35.2929 29.7619L26.9253 25.86L24.3896 31.2978L32.7572 35.1997L35.2929 29.7619ZM30.2104 23.301L31.0364 32.7423L37.0136 32.2193L36.1876 22.778L30.2104 23.301Z" fill="#515151" mask="url(#path-1-inside-1_223_83)"/>
</svg>
