<svg width="30" height="30" viewBox="0 0 30 30" fill="none" xmlns="http://www.w3.org/2000/svg">
<line x1="20.957" y1="5.25" x2="29.957" y2="5.25" stroke="#515151" stroke-width="2"/>
<line x1="25.207" y1="10" x2="25.207" y2="1" stroke="#515151" stroke-width="2"/>
<path fill-rule="evenodd" clip-rule="evenodd" d="M20.8054 3.75942C20.9905 2.88861 21.3525 2.11036 21.8391 1.49099C19.7883 0.53786 17.4635 0 15 0C6.71573 0 0 6.08227 0 13.5851C0 21.088 6.71573 27.1702 15 27.1702C17.229 27.1702 19.3444 26.7299 21.246 25.9401L25.4693 28.4483L28.0818 29.9998L27.8735 26.9685L27.4728 21.1342C29.069 18.9752 30 16.3786 30 13.5851C30 11.3055 29.38 9.15696 28.2844 7.27035C27.9295 8.22593 27.348 9.01835 26.6283 9.53516C27.1931 10.8038 27.5 12.1743 27.5 13.5851C27.5 15.8084 26.7623 17.89 25.4625 19.6479L24.9156 20.3877L24.9786 21.3055L25.2611 25.4169L22.5226 23.7906L21.4448 23.1505L20.2871 23.6313C18.6883 24.2954 16.8987 24.6702 15 24.6702C7.85763 24.6702 2.5 19.48 2.5 13.5851C2.5 7.69026 7.85763 2.5 15 2.5C17.1243 2.5 19.0908 2.95915 20.8054 3.75942Z" fill="#515151"/>
</svg>
