<svg width="30" height="30" viewBox="0 0 30 30" fill="none" xmlns="http://www.w3.org/2000/svg">
<rect x="18" y="4.5" width="12" height="3" rx="1.5" fill="black"/>
<rect x="22.5" y="12" width="12" height="3" rx="1.5" transform="rotate(-90 22.5 12)" fill="black"/>
<path fill-rule="evenodd" clip-rule="evenodd" d="M26.25 10.0927C26.7368 11.2772 27 12.548 27 13.8543C27 15.9452 26.3478 17.9043 25.1951 19.5782L24.5914 20.4548L24.6752 21.5158L24.939 24.8579L22.7587 23.731L21.4923 23.0765L20.185 23.6449C18.6236 24.3239 16.8676 24.7087 15 24.7087C8.1437 24.7087 3 19.6291 3 13.8543C3 8.07963 8.1437 3 15 3C16.5739 3 18.0576 3.26768 19.4095 3.75H21.75V1.47866C19.7211 0.532779 17.4279 0 15 0C6.71573 0 0 6.2028 0 13.8543C0 21.5059 6.71573 27.7087 15 27.7087C17.282 27.7087 19.4449 27.2381 21.3813 26.3961L25.2169 28.3785L28.3542 30L28.0763 26.4793L27.6659 21.2798C29.1439 19.1336 30 16.5863 30 13.8543C30 11.8597 29.5436 9.96352 28.7221 8.25H26.25V10.0927Z" fill="black"/>
</svg>
