<svg width="30" height="30" viewBox="0 0 30 30" fill="none" xmlns="http://www.w3.org/2000/svg">
<path d="M10 17.6111H20C24.6944 17.6111 28.5 21.4167 28.5 26.1111V28.5H1.5V26.1111C1.5 21.4167 5.30558 17.6111 10 17.6111Z" stroke="black" stroke-width="3"/>
<rect x="20" y="3.75" width="10" height="2.5" rx="1.25" fill="black"/>
<rect x="23.75" y="10" width="10" height="2.5" rx="1.25" transform="rotate(-90 23.75 10)" fill="black"/>
<path fill-rule="evenodd" clip-rule="evenodd" d="M19.5 6.94444C19.5 8.90967 17.7069 10.8889 15 10.8889C12.2931 10.8889 10.5 8.90967 10.5 6.94444C10.5 4.97922 12.2931 3 15 3C16.8658 3 18.2974 3.9403 19.007 5.16821C19.0024 5.11275 19 5.05665 19 5C19 3.89543 19.8954 3 21 3H21.1735C19.8202 1.18749 17.5599 0 15 0C10.8579 0 7.5 3.10913 7.5 6.94444C7.5 10.7798 10.8579 13.8889 15 13.8889C19.1221 13.8889 22.4675 10.8097 22.4998 7H21C20.3585 7 19.7876 6.69798 19.4216 6.22839C19.4733 6.46487 19.5 6.70476 19.5 6.94444Z" fill="black"/>
</svg>
