<svg width="30" height="30" viewBox="0 0 30 30" fill="none" xmlns="http://www.w3.org/2000/svg">
<mask id="path-1-inside-1_223_63" fill="white">
<path fill-rule="evenodd" clip-rule="evenodd" d="M27.6659 21.2798C29.1439 19.1336 30 16.5863 30 13.8543C30 6.2028 23.2843 0 15 0C6.71573 0 0 6.2028 0 13.8543C0 21.5059 6.71573 27.7087 15 27.7087C17.282 27.7087 19.4449 27.2381 21.3813 26.3961L28.3542 30L27.6659 21.2798Z"/>
</mask>
<path fill-rule="evenodd" clip-rule="evenodd" d="M27.6659 21.2798C29.1439 19.1336 30 16.5863 30 13.8543C30 6.2028 23.2843 0 15 0C6.71573 0 0 6.2028 0 13.8543C0 21.5059 6.71573 27.7087 15 27.7087C17.282 27.7087 19.4449 27.2381 21.3813 26.3961L28.3542 30L27.6659 21.2798Z" fill="black"/>
<path d="M27.6659 21.2798L25.1951 19.5782L24.5914 20.4548L24.6752 21.5158L27.6659 21.2798ZM21.3813 26.3961L22.7587 23.731L21.4923 23.0765L20.185 23.6449L21.3813 26.3961ZM28.3542 30L26.9768 32.6651L31.7694 35.142L31.3449 29.7639L28.3542 30ZM27 13.8543C27 15.9452 26.3478 17.9043 25.1951 19.5782L30.1367 22.9813C31.9399 20.3628 33 17.2274 33 13.8543H27ZM15 3C21.8563 3 27 8.07963 27 13.8543H33C33 4.32598 24.7122 -3 15 -3V3ZM3 13.8543C3 8.07963 8.1437 3 15 3V-3C5.28775 -3 -3 4.32598 -3 13.8543H3ZM15 24.7087C8.1437 24.7087 3 19.6291 3 13.8543H-3C-3 23.3827 5.28775 30.7087 15 30.7087V24.7087ZM20.185 23.6449C18.6236 24.3239 16.8676 24.7087 15 24.7087V30.7087C17.6963 30.7087 20.2662 30.1522 22.5775 29.1473L20.185 23.6449ZM29.7316 27.3349L22.7587 23.731L20.0039 29.0612L26.9768 32.6651L29.7316 27.3349ZM24.6752 21.5158L25.3635 30.236L31.3449 29.7639L30.6566 21.0437L24.6752 21.5158Z" fill="black" mask="url(#path-1-inside-1_223_63)"/>
</svg>
