<svg width="800" height="800" viewBox="0 0 800 800" fill="none" xmlns="http://www.w3.org/2000/svg">
<path fill-rule="evenodd" clip-rule="evenodd" d="M400 800C620.914 800 800 620.914 800 400C800 179.086 620.914 0 400 0C179.086 0 0 179.086 0 400C0 620.914 179.086 800 400 800ZM222.984 576.537C208.339 561.892 208.339 538.149 222.984 523.504L346.374 400.114L222.984 276.724C208.339 262.079 208.339 238.335 222.984 223.691C237.628 209.046 261.372 209.046 276.017 223.691L399.407 347.081L523.504 222.984C538.149 208.339 561.893 208.339 576.537 222.984C591.182 237.628 591.182 261.372 576.537 276.016L452.44 400.114L576.537 524.211C591.182 538.856 591.182 562.599 576.537 577.244C561.892 591.889 538.149 591.889 523.504 577.244L399.407 453.147L276.017 576.537C261.372 591.182 237.628 591.182 222.984 576.537Z" fill="#9867FF"/>
</svg>
